#!OML:ASF X:\für Bonn\!DataBase\2005_08_11_Bastian_Final\c3d\Bastian.ASF
:FULLY-SPECIFIED
:DEGREES
127
root 0.296766 18.1251 -0.550601 177.239 -3.83701 -175.563
lowerback 11.8631 -1.67202 -1.79763
upperback 2.70775 -2.66933 0.743396
thorax -3.69435 -1.41785 2.1876
lowerneck -13.113 -5.0723 -1.95426
upperneck -0.579968 -6.34401 8.65653
head 2.51648 -2.65368 2.80824
rclavicle -2.38542e-014 2.46493e-014
rhumerus 86.4215 9.61785 33.4939
rradius 41.1657
rwrist -82.2401
rhand -48.4697 -10.328
rfingers 7.12502
rthumb -21.1197 -39.1978
lclavicle -2.38542e-014 2.46493e-014
lhumerus 85.8249 -16.1943 -56.7591
lradius 31.8216
lwrist 47.7339
lhand -43.6798 22.8198
lfingers 7.12502
lthumb -16.513 52.1371
rfemur -8.35146 0.316913 26.6339
rtibia 38.7316
rfoot -11.4198 -12.6813
rtoes -8.62741
lfemur -7.53399 5.03073 -15.545
ltibia 36.4097
lfoot -18.271 3.98807
ltoes -13.534
128
root 0.275759 18.1411 -0.597933 177.343 -3.86349 -175.679
lowerback 11.1824 -1.72808 -1.63638
upperback 2.62086 -2.69347 0.718205
thorax -3.41805 -1.42523 2.04629
lowerneck -12.8951 -5.03862 -2.01223
upperneck -0.471823 -6.31432 8.62845
head 2.51279 -2.65073 2.81407
rclavicle 4.79071e-014 -4.77083e-015
rhumerus 86.5235 9.43562 34.2688
rradius 41.2569
rwrist -82.222
rhand -48.229 -10.5674
rfingers 7.12502
rthumb -20.8884 -39.4628
lclavicle 4.79071e-014 -4.77083e-015
lhumerus 85.9535 -16.3521 -56.7037
lradius 31.7711
lwrist 47.6243
lhand -43.5606 22.9539
lfingers 7.12502
lthumb -16.3981 52.2807
rfemur -7.97128 0.621885 26.5537
rtibia 38.7427
rfoot -11.589 -13.1836
rtoes -8.27225
lfemur -6.81592 5.51439 -15.6372
ltibia 35.1398
lfoot -16.2709 4.09217
ltoes -15.4903
129
root 0.255229 18.1457 -0.641395 177.428 -3.89722 -175.771
lowerback 10.5726 -1.77841 -1.46542
upperback 2.55261 -2.71589 0.702948
thorax -3.16089 -1.433 1.91232
lowerneck -12.7197 -5.00518 -2.0533
upperneck -0.378104 -6.28327 8.58227
head 2.51019 -2.64589 2.8101
rclavicle 1.89839e-014 1.35174e-014
rhumerus 86.5898 9.24621 34.9205
rradius 41.2714
rwrist -82.148
rhand -48.0422 -10.6926
rfingers 7.12502
rthumb -20.7089 -39.6076
lclavicle 1.89839e-014 1.35174e-014
lhumerus 85.9651 -16.4465 -56.6334
lradius 31.801
lwrist 47.6362
lhand -43.5347 23.2158
lfingers 7.12502
lthumb -16.3732 52.5447
rfemur -7.61066 0.772838 26.4859
rtibia 38.7815
rfoot -11.8333 -13.5451
rtoes -7.88189
lfemur -6.21476 5.9578 -15.6936
ltibia 34.1424
lfoot -14.1607 4.06751
ltoes -16.8805
130
root 0.234775 18.1375 -0.68036 177.521 -3.92926 -175.843
lowerback 10.0079 -1.82223 -1.28468
upperback 2.49866 -2.73403 0.695206
thorax -2.91356 -1.43947 1.78176
lowerneck -12.6183 -4.98093 -2.10874
upperneck -0.29282 -6.25887 8.56341
head 2.52073 -2.63994 2.81684
rclavicle 3.00165e-014 2.78299e-015
rhumerus 86.6116 8.98695 35.5522
rradius 41.2857
rwrist -82.1949
rhand -47.9125 -10.7027
rfingers 7.12502
rthumb -20.5843 -39.6313
lclavicle 3.00165e-014 2.78299e-015
lhumerus 85.8592 -16.4875 -56.5006
lradius 31.8872
lwrist 47.7287
lhand -43.5385 23.6304
lfingers 7.12502
lthumb -16.3769 52.959
rfemur -7.28301 0.761916 26.4074
rtibia 38.8204
rfoot -12.1437 -13.6763
rtoes -7.34647
lfemur -5.74755 6.30465 -15.7344
ltibia 33.4241
lfoot -12.4208 3.86741
ltoes -18.6965
131
root 0.214074 18.117 -0.713418 177.571 -3.94925 -175.867
lowerback 9.58185 -1.85781 -1.06089
upperback 2.43933 -2.743 0.691397
thorax -2.75013 -1.44129 1.63634
lowerneck -12.516 -4.9536 -2.13518
upperneck -0.21968 -6.23197 8.544
head 2.52545 -2.63224 2.81821
rclavicle -5.1684e-015 -2.18663e-014
rhumerus 86.5708 8.69667 36.2063
rradius 41.3318
rwrist -82.3895
rhand -47.875 -10.5413
rfingers 7.12502
rthumb -20.5483 -39.4738
lclavicle -5.1684e-015 -2.18663e-014
lhumerus 85.7099 -16.4621 -56.5097
lradius 32.0389
lwrist 48.0773
lhand -43.6582 24.0621
lfingers 7.12502
lthumb -16.4922 53.3811
rfemur -6.92847 0.632817 26.3631
rtibia 38.8206
rfoot -12.5314 -13.7147
rtoes -6.79026
lfemur -5.34705 6.54438 -15.725
ltibia 32.9752
lfoot -10.9645 3.56404
ltoes -20.0096
132
root 0.193364 18.0851 -0.741081 177.632 -3.97045 -175.893
lowerback 9.20315 -1.88692 -0.857707
upperback 2.38902 -2.74934 0.702433
thorax -2.60171 -1.44225 1.51944
lowerneck -12.475 -4.93718 -2.16136
upperneck -0.149075 -6.21723 8.48228
head 2.53918 -2.63046 2.80334
rclavicle -2.16178e-014 9.14409e-015
rhumerus 86.4525 8.3343 36.812
rradius 41.4175
rwrist -82.7209
rhand -47.865 -10.2871
rfingers 7.12502
rthumb -20.5387 -39.2206
lclavicle -2.16178e-014 9.14409e-015
lhumerus 85.4841 -16.3698 -56.5682
lradius 32.2318
lwrist 48.5888
lhand -43.8325 24.5003
lfingers 7.12502
lthumb -16.66 53.8053
rfemur -6.56039 0.522616 26.3185
rtibia 38.7656
rfoot -13.0929 -13.7252
rtoes -6.26514
lfemur -5.03056 6.72108 -15.714
ltibia 32.7581
lfoot -9.87536 3.03026
ltoes -20.223
133
root 0.172851 18.0425 -0.763844 177.672 -3.988 -175.871
lowerback 8.88488 -1.92198 -0.635195
upperback 2.3568 -2.76614 0.751698
thorax -2.4665 -1.44969 1.4345
lowerneck -12.4431 -4.91617 -2.25122
upperneck -0.114558 -6.18423 8.46415
head 2.54629 -2.61799 2.81642
rclavicle 4.27884e-014 1.19271e-015
rhumerus 86.2783 7.87035 37.329
rradius 41.5143
rwrist -83.1306
rhand -47.8472 -9.98438
rfingers 7.12502
rthumb -20.5216 -38.9198
lclavicle 4.27884e-014 1.19271e-015
lhumerus 85.1258 -16.2711 -56.5759
lradius 32.4755
lwrist 49.1871
lhand -44.058 24.9144
lfingers 7.12502
lthumb -16.877 54.2011
rfemur -6.1392 0.437576 26.3442
rtibia 38.6364
rfoot -13.8428 -13.7472
rtoes -5.71747
lfemur -4.76524 6.92966 -15.6274
ltibia 32.7359
lfoot -9.37303 2.23147
ltoes -20.2607
134
root 0.153666 17.9909 -0.782594 177.682 -3.98852 -175.873
lowerback 8.62646 -1.93583 -0.439051
upperback 2.35075 -2.76255 0.768931
thorax -2.3382 -1.44787 1.33102
lowerneck -12.3979 -4.88424 -2.21812
upperneck -0.140767 -6.14324 8.40007
head 2.52196 -2.60244 2.79156
rclavicle -1.95803e-014 -3.97569e-016
rhumerus 85.9331 7.34588 37.7929
rradius 41.6697
rwrist -83.6224
rhand -47.8327 -9.70637
rfingers 7.12502
rthumb -20.5076 -38.6433
lclavicle -1.95803e-014 -3.97569e-016
lhumerus 84.6964 -16.0455 -56.6352
lradius 32.7403
lwrist 49.8365
lhand -44.2227 25.1964
lfingers 7.12502
lthumb -17.0355 54.4694
rfemur -5.68934 0.559742 26.3895
rtibia 38.4545
rfoot -14.7647 -13.9604
rtoes -4.8686
lfemur -4.52621 7.18021 -15.5444
ltibia 32.8623
lfoot -9.51116 1.20742
ltoes -20.579
135
root 0.134226 17.9317 -0.797869 177.669 -4.00461 -175.849
lowerback 8.43006 -1.95517 -0.221743
upperback 2.3479 -2.7668 0.80719
thorax -2.24057 -1.45036 1.24085
lowerneck -12.327 -4.86661 -2.23169
upperneck -0.189793 -6.1145 8.33918
head 2.48812 -2.59456 2.77586
rclavicle -3.12092e-014 7.95139e-016
rhumerus 85.5304 6.82507 38.1079
rradius 41.7825
rwrist -83.9644
rhand -47.7503 -9.45129
rfingers 7.12502
rthumb -20.4285 -38.3967
lclavicle -3.12092e-014 7.95139e-016
lhumerus 84.2004 -15.7867 -56.7105
lradius 33.018
lwrist 50.516
lhand -44.3545 25.3693
lfingers 7.12502
lthumb -17.1625 54.6314
rfemur -5.27564 0.754093 26.4778
rtibia 38.2364
rfoot -15.7046 -14.241
rtoes -3.921
lfemur -4.31299 7.48772 -15.4222
ltibia 33.0848
lfoot -10.258 0.028394
ltoes -21.2717
136
root 0.114104 17.8639 -0.809065 177.645 -4.01935 -175.804
lowerback 8.25368 -1.96044 0.0633396
upperback 2.37494 -2.75116 0.816935
thorax -2.12803 -1.444 1.08156
lowerneck -12.2401 -4.85806 -2.21622
upperneck -0.301776 -6.09385 8.31515
head 2.431 -2.58861 2.7671
rclavicle -1.64494e-014 1.03368e-014
rhumerus 85.0184 6.36141 38.2336
rradius 41.9046
rwrist -84.1741
rhand -47.6628 -9.37956
rfingers 7.12502
rthumb -20.3444 -38.3339
lclavicle -1.64494e-014 1.03368e-014
lhumerus 83.6606 -15.4368 -56.6817
lradius 33.2258
lwrist 51.0307
lhand -44.3862 25.2409
lfingers 7.12502
lthumb -17.1929 54.5003
rfemur -4.92892 0.951189 26.5875
rtibia 38.0175
rfoot -16.5673 -14.5721
rtoes -3.15847
lfemur -4.13424 7.70149 -15.301
ltibia 33.3447
lfoot -11.37 -1.04954
ltoes -21.7105
137
root 0.092921 17.7923 -0.821359 177.583 -4.02507 -175.779
lowerback 8.12407 -1.95918 0.350092
upperback 2.41568 -2.72969 0.811922
thorax -2.0279 -1.43502 0.907386
lowerneck -12.0751 -4.85845 -2.17292
upperneck -0.48831 -6.08205 8.27817
head 2.33309 -2.59026 2.74911
rclavicle 2.96189e-014 -2.38542e-015
rhumerus 84.5531 5.97655 38.2524
rradius 41.9533
rwrist -84.1916
rhand -47.5923 -9.4716
rfingers 7.12502
rthumb -20.2766 -38.4332
lclavicle 2.96189e-014 -2.38542e-015
lhumerus 83.1148 -15.0568 -56.6103
lradius 33.3742
lwrist 51.4322
lhand -44.3129 25.0041
lfingers 7.12502
lthumb -17.1223 54.2696
rfemur -4.57996 1.11639 26.6678
rtibia 37.8325
rfoot -17.4679 -14.8661
rtoes -2.42379
lfemur -3.91756 7.78322 -15.2408
ltibia 33.6086
lfoot -12.6483 -1.92839
ltoes -21.0705
138
root 0.0719531 17.7198 -0.83407 177.5 -4.03743 -175.751
lowerback 8.03724 -1.96679 0.635267
upperback 2.46284 -2.72193 0.809282
thorax -1.94426 -1.43301 0.739631
lowerneck -11.9085 -4.85706 -2.15341
upperneck -0.664869 -6.06657 8.26503
head 2.24062 -2.58928 2.74407
rclavicle -2.64881e-014 -7.95139e-016
rhumerus 84.1074 5.61291 38.2126
rradius 42.0061
rwrist -84.1491
rhand -47.5538 -9.66589
rfingers 7.12502
rthumb -20.2396 -38.6314
lclavicle -2.64881e-014 -7.95139e-016
lhumerus 82.5476 -14.6936 -56.5098
lradius 33.4879
lwrist 51.6891
lhand -44.1902 24.5925
lfingers 7.12502
lthumb -17.0043 53.8682
rfemur -4.27804 1.18032 26.742
rtibia 37.7223
rfoot -18.4344 -15.1579
rtoes -2.10788
lfemur -3.69671 7.66821 -15.2414
ltibia 33.8314
lfoot -13.7931 -2.45622
ltoes -19.3611
139
root 0.0522709 17.6461 -0.844728 177.384 -4.0433 -175.724
lowerback 7.98512 -1.96594 0.913031
upperback 2.54141 -2.70723 0.791734
thorax -1.84766 -1.42834 0.560757
lowerneck -11.6697 -4.83697 -2.05189
upperneck -0.939647 -6.025 8.21599
head 2.09572 -2.57864 2.71446
rclavicle -1.46604e-014 1.15295e-014
rhumerus 83.6039 5.20039 38.2241
rradius 42.0905
rwrist -84.1337
rhand -47.5448 -9.93524
rfingers 7.12502
rthumb -20.231 -38.9017
lclavicle -1.46604e-014 1.15295e-014
lhumerus 81.9843 -14.2977 -56.4256
lradius 33.5826
lwrist 51.8721
lhand -44.0478 24.1699
lfingers 7.12502
lthumb -16.8672 53.4574
rfemur -4.01198 1.12638 26.7995
rtibia 37.6953
rfoot -19.4436 -15.401
rtoes -1.87763
lfemur -3.46924 7.4715 -15.2851
ltibia 34.0091
lfoot -14.8517 -2.65411
ltoes -17.9968
